<svg xmlns="http://www.w3.org/2000/svg" viewBox="0 0 100 100">
  <rect width="100" height="100" fill="#0066CC" rx="20"/>
  <g transform="translate(20, 20) scale(0.6)">
    <!-- Стилизованная буква S -->
    <path d="M30 20 C40 20, 50 25, 50 35 C50 45, 40 50, 30 50 C20 50, 10 45, 10 35 C10 25, 20 20, 30 20 Z" fill="white" opacity="0.9"/>
    <path d="M70 50 C60 50, 50 55, 50 65 C50 75, 60 80, 70 80 C80 80, 90 75, 90 65 C90 55, 80 50, 70 50 Z" fill="white" opacity="0.9"/>
    
    <!-- Стрелка вверх -->
    <path d="M65 15 L75 25 L70 30 L70 40 L60 40 L60 30 L55 25 Z" fill="white"/>
  </g>
</svg>
