<svg xmlns="http://www.w3.org/2000/svg" viewBox="0 0 192 192">
  <rect width="192" height="192" fill="#0066CC" rx="38"/>
  <g transform="translate(38, 38) scale(0.6)">
    <!-- Стилизованная буква S -->
    <path d="M58 38 C77 38, 96 48, 96 67 C96 86, 77 96, 58 96 C39 96, 19 86, 19 67 C19 48, 39 38, 58 38 Z" fill="white" opacity="0.9"/>
    <path d="M134 96 C115 96, 96 106, 96 125 C96 144, 115 154, 134 154 C153 154, 173 144, 173 125 C173 106, 153 96, 134 96 Z" fill="white" opacity="0.9"/>
    
    <!-- Стрелка вверх -->
    <path d="M125 29 L144 48 L134 58 L134 77 L115 77 L115 58 L106 48 Z" fill="white"/>
  </g>
</svg>
