<svg xmlns="http://www.w3.org/2000/svg" viewBox="0 0 512 512">
  <rect width="512" height="512" fill="#0066CC" rx="102"/>
  <g transform="translate(102, 102) scale(0.6)">
    <!-- Стилизованная буква S -->
    <path d="M154 102 C205 102, 256 128, 256 179 C256 230, 205 256, 154 256 C103 256, 51 230, 51 179 C51 128, 103 102, 154 102 Z" fill="white" opacity="0.9"/>
    <path d="M358 256 C307 256, 256 282, 256 333 C256 384, 307 410, 358 410 C409 410, 461 384, 461 333 C461 282, 409 256, 358 256 Z" fill="white" opacity="0.9"/>
    
    <!-- Стрелка вверх -->
    <path d="M333 77 L384 128 L358 154 L358 205 L307 205 L307 154 L282 128 Z" fill="white"/>
  </g>
</svg>
