<svg xmlns="http://www.w3.org/2000/svg" viewBox="0 0 200 60">
  <g>
    <!-- Стилизованная буква S -->
    <path d="M20 15 C30 15, 40 20, 40 30 C40 40, 30 45, 20 45 C10 45, 0 40, 0 30 C0 20, 10 15, 20 15 Z" fill="#0066CC" opacity="0.9"/>
    <path d="M60 45 C50 45, 40 50, 40 60 C40 70, 50 75, 60 75 C70 75, 80 70, 80 60 C80 50, 70 45, 60 45 Z" fill="#0066CC" opacity="0.9"/>
    
    <!-- Стрелка вверх -->
    <path d="M55 10 L70 25 L65 30 L65 45 L50 45 L50 30 L45 25 Z" fill="#0066CC"/>
    
    <!-- Текст "ellBit" -->
    <text x="90" y="40" font-family="Arial, sans-serif" font-size="24" font-weight="bold" fill="#0066CC">ellBit</text>
  </g>
</svg>
