<svg width="32" height="32" viewBox="0 0 32 32" fill="none" xmlns="http://www.w3.org/2000/svg">
  <circle cx="16" cy="16" r="16" fill="#F3BA2F"/>
  <path d="M12.116 14.404L16 10.52l3.886 3.885 2.26-2.26L16 6l-6.144 6.144 2.26 2.26zM6 16l2.26-2.26L10.52 16l-2.26 2.26L6 16zm6.116 1.596L16 21.48l3.886-3.885 2.26 2.259L16 26l-6.144-6.144 2.26-2.26zM21.48 16l2.26-2.26L26 16l-2.26 2.26L21.48 16zm-3.648-.002h.002L16 18.83l-1.83-1.83-1.416-1.414h-.002l-.002-.002L16 13.17l1.83 1.83 1.414 1.414z" fill="white"/>
</svg>
