<?xml version="1.0" standalone="no"?>
<!DOCTYPE svg PUBLIC "-//W3C//DTD SVG 20010904//EN"
 "http://www.w3.org/TR/2001/REC-SVG-20010904/DTD/svg10.dtd">
<svg version="1.0" xmlns="http://www.w3.org/2000/svg"
 width="1024.000000pt" height="1024.000000pt" viewBox="0 0 1024.000000 1024.000000"
 preserveAspectRatio="xMidYMid meet">

<g transform="translate(0.000000,1024.000000) scale(0.100000,-0.100000)"
fill="#FFFFFF" stroke="none">
<path d="M6755 8520 l370 -371 -180 -176 c-99 -97 -360 -355 -580 -573 -220
-217 -441 -435 -491 -483 l-91 -88 -34 20 c-93 55 -328 125 -486 146 -63 8
-190 15 -282 15 -434 0 -774 -127 -1012 -378 -185 -195 -279 -442 -279 -732 0
-329 140 -628 378 -807 191 -144 395 -214 857 -293 474 -81 654 -160 732 -318
37 -76 39 -187 3 -277 -31 -79 -128 -177 -221 -222 -129 -63 -204 -78 -399
-78 -134 0 -192 4 -249 18 -229 56 -410 188 -497 364 l-36 73 -354 0 -354 0 0
-25 c0 -39 29 -170 56 -255 30 -97 101 -235 164 -319 61 -84 205 -223 285
-278 172 -116 415 -206 665 -245 130 -20 510 -17 630 5 486 90 868 395 1006
801 80 233 75 521 -11 733 -102 253 -304 431 -619 548 -161 60 -322 98 -686
165 -371 68 -539 149 -610 295 -20 41 -24 65 -24 136 0 74 4 93 29 145 78 159
256 255 501 271 290 18 577 -84 746 -265 26 -28 73 -89 103 -136 l55 -86 513
0 c549 0 589 3 661 52 17 11 292 281 611 600 l581 579 317 -318 317 -318 0
1223 0 1222 -1227 0 -1228 0 370 -370z"/>
<path d="M4775 8618 c-629 -29 -1319 -267 -1835 -633 -326 -231 -657 -565
-882 -890 -439 -632 -662 -1413 -627 -2190 4 -99 11 -202 14 -230 43 -345 129
-677 247 -955 457 -1074 1407 -1854 2541 -2086 253 -51 429 -68 737 -68 312
-1 433 11 695 65 1380 284 2476 1432 2719 2849 35 203 46 342 46 585 0 292
-28 536 -91 810 -39 169 -100 376 -110 373 -4 -2 -116 -110 -249 -242 l-242
-238 21 -107 c48 -243 55 -317 55 -586 0 -217 -4 -283 -22 -397 -114 -727
-455 -1337 -1002 -1795 -616 -516 -1391 -745 -2190 -647 -664 82 -1273 388
-1750 880 -137 141 -214 237 -326 405 -230 344 -366 707 -430 1144 -25 170
-25 602 -1 770 37 245 96 469 179 675 405 1004 1287 1693 2358 1841 60 9 197
14 375 14 310 -1 428 -12 640 -64 92 -23 123 -27 131 -18 63 66 423 532 416
539 -13 13 -171 65 -281 92 -369 93 -713 124 -1136 104z"/>
</g>
</svg>

