<svg width="32" height="32" viewBox="0 0 32 32" fill="none" xmlns="http://www.w3.org/2000/svg">
  <circle cx="16" cy="16" r="16" fill="#FF6600"/>
  <path d="M16 6C10.477 6 6 10.477 6 16s4.477 10 10 10 10-4.477 10-10S21.523 6 16 6zm0 18c-4.418 0-8-3.582-8-8s3.582-8 8-8 8 3.582 8 8-3.582 8-8 8z" fill="white"/>
  <path d="M12 12h8v8h-8z" fill="white"/>
  <path d="M14 14h4v4h-4z" fill="#FF6600"/>
  <path d="M16 8L20 12L16 16L12 12L16 8z" fill="white"/>
  <path d="M16 16L20 20L16 24L12 20L16 16z" fill="white"/>
</svg>
